<?xml version="1.0" standalone="no"?>
<!DOCTYPE svg PUBLIC "-//W3C//DTD SVG 20010904//EN"
 "http://www.w3.org/TR/2001/REC-SVG-20010904/DTD/svg10.dtd">
<svg version="1.0" xmlns="http://www.w3.org/2000/svg"
 width="260.000000pt" height="260.000000pt" viewBox="0 0 260.000000 260.000000"
 preserveAspectRatio="xMidYMid meet">
<metadata>
Created by potrace 1.11, written by Peter Selinger 2001-2013
</metadata>
<g transform="translate(0.000000,260.000000) scale(0.100000,-0.100000)"
fill="#000000" stroke="none">
<path d="M1142 2589 c-555 -75 -996 -483 -1113 -1030 -31 -146 -32 -371 -1
-516 136 -633 697 -1071 1332 -1039 337 17 615 140 855 381 241 240 364 518
381 855 29 565 -325 1090 -864 1284 -166 59 -422 88 -590 65z m-152 -834 c30
-9 58 -20 63 -24 4 -4 1 -25 -7 -47 -15 -44 -20 -45 -111 -20 -72 20 -184 21
-228 2 -71 -30 -103 -104 -77 -180 15 -48 68 -86 173 -127 193 -74 256 -125
277 -223 28 -136 -46 -257 -184 -298 -63 -20 -269 -16 -338 5 l-58 18 0 49 c0
28 2 50 3 50 2 0 39 -9 82 -20 112 -29 246 -28 305 3 62 31 85 67 84 130 0 91
-37 123 -214 193 -104 41 -131 55 -173 93 -62 56 -91 163 -68 249 21 75 93
138 188 162 53 13 218 4 283 -15z m390 -185 l0 -200 245 0 245 0 0 200 0 200
55 0 55 0 0 -470 0 -470 -55 0 -55 0 0 220 0 220 -245 0 -245 0 0 -220 0 -220
-55 0 -55 0 0 470 0 470 55 0 55 0 0 -200z"/>
</g>
</svg>
