<?xml version="1.0" standalone="no"?>
<!DOCTYPE svg PUBLIC "-//W3C//DTD SVG 20010904//EN"
 "http://www.w3.org/TR/2001/REC-SVG-20010904/DTD/svg10.dtd">
<svg version="1.0" xmlns="http://www.w3.org/2000/svg"
 width="260.000000pt" height="260.000000pt" viewBox="0 0 260.000000 260.000000"
 preserveAspectRatio="xMidYMid meet">
<metadata>
Created by potrace 1.11, written by Peter Selinger 2001-2013
</metadata>
<g transform="translate(0.000000,260.000000) scale(0.100000,-0.100000)"
fill="#000000" stroke="none">
<path d="M177 2586 c-83 -30 -146 -96 -167 -178 -7 -23 -9 -430 -8 -1130 l3
-1093 21 -40 c28 -51 68 -91 119 -119 l40 -21 1115 0 1115 0 40 21 c51 28 91
68 119 119 l21 40 0 1115 0 1115 -21 40 c-28 51 -68 91 -119 119 l-40 21
-1100 2 c-906 2 -1107 0 -1138 -11z m663 -671 c36 -9 82 -20 103 -26 l37 -10
0 -58 c0 -32 -3 -99 -7 -150 l-6 -92 -76 3 -75 3 -21 105 c-19 97 -22 106 -49
119 -48 23 -149 26 -201 7 -75 -29 -113 -101 -95 -180 15 -66 77 -117 243
-203 230 -117 292 -165 341 -260 62 -123 29 -292 -77 -390 -138 -127 -358
-155 -659 -82 l-137 33 5 115 c3 64 7 135 10 159 l5 42 78 0 77 0 18 -97 c10
-54 24 -108 32 -120 34 -53 230 -70 305 -27 51 30 79 78 79 136 0 99 -40 137
-258 247 -184 94 -264 158 -309 249 -25 50 -28 68 -28 152 0 79 4 103 23 142
47 96 143 164 273 193 79 18 275 13 369 -10z m890 -44 c0 -65 4 -63 -92 -76
l-48 -7 0 -204 0 -204 235 0 235 0 -2 202 -3 202 -40 8 c-91 18 -85 12 -85 78
l0 60 270 0 270 0 0 -59 c0 -65 2 -64 -78 -76 l-42 -7 2 -496 3 -497 25 -3
c92 -10 90 -8 90 -67 l0 -55 -270 0 -270 0 0 54 c0 60 -7 54 93 71 l37 6 0
219 0 220 -235 0 -235 0 0 -220 0 -220 23 -4 c12 -3 43 -8 70 -11 l47 -6 0
-55 0 -54 -280 0 -280 0 0 54 0 55 48 6 c26 4 55 9 65 12 16 4 17 36 17 498
l0 493 -46 7 c-74 11 -74 11 -74 76 l0 59 275 0 275 0 0 -59z"/>
</g>
</svg>
